# xmcd
#
# Track frame offsets: 
#        150
#        22284
#        36436
#        94906
#        126806
#        141992
#        165415
#        186552
#        209907
#        225881
#        239555
#
# Disc length: 3604 seconds
#
# Revision: 0
# Processed by: cddbd v1.5.1PL0 Copyright (c) Steve Scherf et al.
# Submitted via: ExactAudioCopy v0.95a5
#
DISCID=a60e120b
DTITLE=Big Jay McNeely and The Bad Boys - Live In Switzerland
DYEAR=2002
DGENRE=
TTITLE0=What A Wonderful World
TTITLE1=Deacon's Hop
TTITLE2=Honky Tonk
TTITLE3=Saint's Go Honkin'
TTITLE4=Love Love
TTITLE5=Cherry Pie
TTITLE6=Party
TTITLE7=Summertime
TTITLE8=All That Wine Is Gone
TTITLE9=3-D
TTITLE10=Let's Boogie
EXTD=
EXTT0=
EXTT1=
EXTT2=
EXTT3=
EXTT4=
EXTT5=
EXTT6=
EXTT7=
EXTT8=
EXTT9=
EXTT10=
PLAYORDER=
